<?xml version="1.0" standalone="no"?>
<!DOCTYPE svg PUBLIC "-//W3C//DTD SVG 20010904//EN"
 "http://www.w3.org/TR/2001/REC-SVG-20010904/DTD/svg10.dtd">
<svg version="1.0" xmlns="http://www.w3.org/2000/svg"
 width="32.000000pt" height="32.000000pt" viewBox="0 0 32.000000 32.000000"
 preserveAspectRatio="xMidYMid meet">

<g transform="translate(0.000000,32.000000) scale(0.100000,-0.100000)"
fill="#000000" stroke="none">
<path d="M62 254 c-49 -32 -52 -36 -41 -57 24 -44 62 -97 67 -93 2 3 -10 28
-28 57 l-34 51 25 19 c13 10 27 19 31 19 9 0 21 -123 14 -146 -8 -28 13 -48
69 -63 28 -7 57 -15 65 -18 12 -3 23 19 47 91 32 99 32 104 -10 119 -11 4 -21
17 -24 28 -5 19 -11 21 -49 15 -26 -3 -44 -2 -44 4 0 19 -35 9 -88 -26z m168
6 c0 -5 -10 -10 -22 -10 -19 0 -20 2 -8 10 19 13 30 13 30 0z m-73 -12 c-2 -7
-13 -40 -23 -73 l-18 -60 -6 65 c-4 36 -5 68 -3 73 7 13 56 8 50 -5z m126 -38
c5 -4 -4 -46 -19 -93 l-27 -85 -59 20 c-32 11 -58 22 -58 25 0 3 12 42 26 88
l26 82 51 -14 c29 -9 56 -19 60 -23z"/>
</g>
</svg>
